<svg version="1.1" id="Layer_1" xmlns="http://www.w3.org/2000/svg" xmlns:xlink="http://www.w3.org/1999/xlink" x="0px" y="0px" enable-background="new 0 0 880 496" xml:space="preserve" viewBox="167.68 159.43 558.72 185.08">
<path fill="#000000" opacity="1.000000" stroke="none" d=" M242.389801,303.823395   C244.452667,312.661713 246.479996,321.081940 248.844650,330.903137   C257.315735,293.223694 265.435181,257.054169 273.583466,220.891174   C276.897461,206.183136 280.365051,191.508957 283.561951,176.775803   C284.421143,172.816101 286.246246,171.446854 290.353607,171.547058   C301.840393,171.827301 313.338379,171.636826 324.831879,171.662964   C326.470947,171.666687 328.178406,171.381226 330.158478,172.667587   C329.264648,179.674271 326.688171,186.485779 324.722870,193.405716   C311.282043,240.731644 297.652008,288.003906 284.239166,335.337708   C282.934021,339.943665 280.820068,341.578888 275.903778,341.491150   C257.752960,341.167114 239.591476,341.215607 221.437714,341.434021   C216.729431,341.490692 214.680603,340.294769 213.319122,335.323608   C205.494537,306.753601 197.111465,278.336884 188.959244,249.856293   C182.077301,225.813507 175.242706,201.757141 168.408386,177.700775   C166.927383,172.487778 167.459015,171.690521 172.632050,171.667984   C184.625076,171.615753 196.618683,171.689240 208.611618,171.627106   C211.425888,171.612534 212.851212,172.165634 213.593002,175.514664   C222.684341,216.559616 232.030838,257.548096 241.308075,298.551880   C241.673248,300.165955 242.006287,301.787323 242.389801,303.823395  z"/>
<path fill="#000000" opacity="1.000000" stroke="none" d=" M689.283447,341.020508   C686.425171,336.834015 688.108459,332.422485 687.689453,328.204651   C687.479980,326.095978 687.652954,323.949280 687.652954,320.457184   C683.834106,326.933289 680.607910,332.246826 675.594482,336.136108   C666.242004,343.391541 655.438843,345.263428 644.068909,344.251160   C633.831360,343.339722 624.407593,340.039886 616.255127,333.387268   C605.955139,324.982208 600.492065,313.715240 597.897400,301.208832   C594.096680,282.889282 594.738220,264.576935 601.505127,246.884872   C608.177246,229.440796 620.633118,219.207123 639.425903,216.563019   C653.087830,214.640793 665.348572,217.101028 676.431763,225.499207   C679.329285,227.694733 680.964233,230.752274 683.194702,233.395828   C684.243103,234.638321 684.871094,236.250290 686.898621,236.923615   C688.414368,232.671341 687.629150,228.340240 687.560303,224.141922   C687.495117,220.168503 688.576904,218.457581 692.874268,218.575928   C702.361572,218.837234 711.862854,218.770081 721.354431,218.605743   C724.884827,218.544601 726.402954,219.493912 726.391907,223.357162   C726.284180,261.168121 726.302917,298.979553 726.387268,336.790649   C726.395020,340.264954 725.155823,341.464172 721.711792,341.398376   C711.056702,341.194824 700.397095,341.230988 689.283447,341.020508  M671.113586,307.674805   C679.800476,305.623749 685.507446,300.439972 687.737366,291.701385   C688.348389,289.306885 688.948181,286.862366 689.119385,284.410522   C690.212158,268.759949 686.489868,254.638229 668.020020,251.761826   C657.748047,250.162125 647.361633,251.063690 640.250122,260.061066   C633.330505,268.815704 632.683533,287.894073 638.877869,297.900360   C645.322021,308.310120 655.627563,310.228363 671.113586,307.674805  z"/>
<path fill="#000000" opacity="1.000000" stroke="none" d=" M325.583740,263.927551   C331.930817,235.124237 359.084656,216.673859 387.301270,216.508377   C406.081299,216.398239 422.853851,221.167908 436.746033,233.815277   C445.775909,242.036041 451.307739,252.741791 453.766937,264.748444   C457.578033,283.355713 455.857422,301.373138 444.741455,317.203003   C434.031616,332.454498 418.927490,340.929382 400.228210,343.502106   C386.126312,345.442291 372.653870,343.840515 359.877045,338.126556   C339.745911,329.123596 328.003326,313.467224 324.578094,291.496521   C323.145569,282.307770 323.583679,273.340149 325.583740,263.927551  M402.373199,306.848419   C408.490906,305.117737 411.994965,300.726257 414.407471,295.155304   C417.360840,288.335358 417.185577,281.106323 416.472015,274.054993   C415.273621,262.211487 409.451141,255.705460 398.596863,252.908569   C383.991669,249.145111 370.610413,253.322769 365.886108,263.510223   C361.157471,273.706940 360.853485,284.493713 364.675110,294.991180   C367.388153,302.443665 373.180511,306.973633 381.163177,308.649841   C388.189453,310.125153 394.953949,309.398712 402.373199,306.848419  z"/>
<path fill="#000000" opacity="1.000000" stroke="none" d=" M537.650330,183.019623   C537.651489,171.650558 537.651489,171.648422 548.477417,171.647186   C555.643250,171.646362 562.815735,171.840012 569.972290,171.583847   C574.088806,171.436493 575.444092,172.850571 575.418213,176.996506   C575.266296,201.325974 575.347717,225.656891 575.348389,249.987320   C575.349121,278.317261 575.235291,306.648071 575.452942,334.976349   C575.491211,339.956635 574.203979,341.726990 569.041687,341.463196   C560.730896,341.038544 552.369873,341.060303 544.055298,341.442719   C539.009155,341.674835 537.527588,340.083313 537.545227,334.998291   C537.719910,284.504913 537.650696,234.010696 537.650330,183.019623  z"/>
<path fill="#000000" opacity="1.000000" stroke="none" d=" M512.341797,243.000092   C512.342957,273.966003 512.249817,304.432495 512.441223,334.897217   C512.471680,339.750214 511.372711,341.713501 506.109497,341.466400   C496.973022,341.037445 487.800201,341.228149 478.646790,341.392609   C475.095551,341.456451 473.588959,340.410217 473.600189,336.607147   C473.700256,302.645477 473.677521,268.683350 473.617035,234.721451   C473.611938,231.868240 474.393829,230.245773 477.331970,229.210754   C488.687683,225.210541 499.938232,220.911758 512.341675,216.311111   C512.341675,225.688797 512.341675,234.094452 512.341797,243.000092  z"/>
<path fill="#000000" opacity="1.000000" stroke="none" d=" M479.574951,201.711853   C474.096313,198.474945 473.023865,193.043747 471.953613,187.973572   C471.182373,184.320068 471.394409,180.303757 471.938477,176.561310   C472.960938,169.528381 475.686340,163.257278 483.271729,161.050842   C492.041260,158.499969 500.651093,158.577759 508.414124,164.301483   C510.932648,166.158401 512.309387,168.916977 513.102234,171.788284   C514.846252,178.104324 514.838379,184.509949 513.595947,190.969894   C512.160889,198.430939 507.472595,202.926208 500.362366,203.938171   C493.548248,204.908020 486.424347,205.547653 479.574951,201.711853  z"/>
<path fill="#000000" opacity="1.000000" stroke="none" d=" M647.646790,166.479004   C651.406128,165.011429 654.811096,163.700226 658.182251,162.307404   C660.279602,161.440826 662.139160,161.381775 663.258606,163.695374   C668.523071,174.575623 673.743652,185.477081 679.087524,196.594818   C674.365662,199.311310 669.481995,200.185135 664.680908,201.257889   C663.337646,201.558014 662.137756,200.936295 660.997925,200.107559   C650.415222,192.413239 639.798767,184.765396 629.200867,177.092010   C628.525818,176.603241 627.929871,176.010498 628.037903,174.439758   C633.914734,171.085785 640.857483,169.438782 647.646790,166.479004  z"/>
</svg>